<?xml version="1.0" encoding="UTF-8"?>
<svg version="1.1" xmlns="http://www.w3.org/2000/svg" width="1501" height="300">
<path d="M0 0 C1 1 1 1 1.09765625 4.81640625 C1.09098089 6.39846682 1.07901875 7.98051159 1.0625 9.5625 C1.05798828 10.36880859 1.05347656 11.17511719 1.04882812 12.00585938 C1.03700518 14.00393756 1.01906914 16.00197783 1 18 C-1 19 -1 19 -3.3984375 18.29296875 C-4.38070312 17.92816406 -5.36296875 17.56335938 -6.375 17.1875 C-23.70943812 11.29379104 -45.97073459 9.62889836 -63.15625 16.9140625 C-67.03265119 18.86814998 -69.4484042 20.92706102 -71 25 C-71 28.79361397 -70.35211736 30.5342964 -68.0625 33.5625 C-59.93266471 40.03318523 -49.99200119 42.82301231 -40.25604248 45.99081421 C-3.49153925 58.02901869 -3.49153925 58.02901869 6 71 C9.12369442 77.17616455 9.10410021 84.74432262 7.3828125 91.37890625 C3.65808465 99.80074665 -3.96356895 104.52735154 -12.1796875 107.94140625 C-37.50420684 117.44686988 -68.42297345 115.80487864 -94 108 C-94.66 107.67 -95.32 107.34 -96 107 C-96 101.06 -96 95.12 -96 89 C-92.20653683 87.73551228 -91.57300131 88.47002375 -88.0625 90.1875 C-70.06208076 97.90504502 -46.12289351 100.8394137 -27.21875 94.91796875 C-23.26432245 93.28189397 -20.21694628 91.6594722 -17.625 88.125 C-16.74848104 85.14483554 -16.56577408 83.10161374 -17 80 C-22.95639444 69.7890381 -36.98930322 66.76198837 -47.61199951 63.30413818 C-88.16814893 50.03349344 -88.16814893 50.03349344 -95.125 36.5625 C-96.9480996 29.13988019 -96.83577193 22.77653041 -93 16 C-84.98215782 4.43532421 -71.65675868 0.37523781 -58.375 -2.25 C-56.58662314 -2.52253929 -54.79469089 -2.77272473 -53 -3 C-52.12472656 -3.12246094 -51.24945313 -3.24492187 -50.34765625 -3.37109375 C-34.19307165 -5.12749825 -15.56585089 -4.98107228 0 0 Z " fill="#F6F6F6" transform="translate(548,134)"/>
<path d="M0 0 C1.051875 0.721875 2.10375 1.44375 3.1875 2.1875 C9.36116036 8.36116036 13.99037865 16.40864505 14.23046875 25.26953125 C14.22652846 26.78391677 14.21202655 28.29830797 14.1875 29.8125 C14.1865332 30.97555664 14.1865332 30.97555664 14.18554688 32.16210938 C14.140687 37.859313 14.140687 37.859313 13 39 C10.44410112 39.09506052 7.91532028 39.12556761 5.35913086 39.11352539 C4.15922264 39.11374443 4.15922264 39.11374443 2.93507385 39.1139679 C0.27830335 39.11326855 -2.37839793 39.10547518 -5.03515625 39.09765625 C-6.87218691 39.09579215 -8.70921806 39.09436821 -10.54624939 39.09336853 C-15.39109662 39.08954275 -20.23591408 39.07971196 -25.08074951 39.06866455 C-30.02062578 39.05845172 -34.96050685 39.05387119 -39.90039062 39.04882812 C-49.60027353 39.03808974 -59.30013429 39.0210126 -69 39 C-68.56425519 40.42313004 -68.1181979 41.8431045 -67.66796875 43.26171875 C-67.42071045 44.05280029 -67.17345215 44.84388184 -66.91870117 45.65893555 C-64.52534625 51.75776105 -60.10640077 55.40797712 -54.3203125 58.17578125 C-46.93873844 60.79785554 -40.22946805 61.38671354 -32.4375 61.375 C-31.37990479 61.37411377 -30.32230957 61.37322754 -29.23266602 61.37231445 C-19.19645907 61.22153791 -10.53043074 59.50758993 -1.34765625 55.36328125 C2 54 2 54 6 54 C6 58.95 6 63.9 6 69 C-13.80061459 78.9003073 -41.7510359 80.37363574 -63 74 C-74.34022989 69.92024846 -84.64371992 63.23562155 -90.0703125 52.1953125 C-94.16700227 42.52161649 -94.71860807 31.06546082 -91.375 21.0625 C-86.47262347 9.49220573 -77.6447543 1.60052164 -66.3671875 -3.64453125 C-45.95843594 -11.86011917 -18.76415162 -13.07437661 0 0 Z M-66.75 19.1328125 C-68.27815194 21.04099391 -68.27815194 21.04099391 -68 24 C-48.53 24 -29.06 24 -9 24 C-11.9030675 15.2907975 -12.96205925 12.71434581 -20 8 C-36.68440934 0.5090407 -55.17997166 5.85827105 -66.75 19.1328125 Z " fill="#F6F6F6" transform="translate(411,171)"/>
<path d="M0 0 C6.84264445 6.35296368 11.06697428 14.71471781 11.625 24.02734375 C11.83208607 32.77390643 11.84777999 40.24781001 7.38671875 48.05078125 C6.82984375 49.08203125 6.27296875 50.11328125 5.69921875 51.17578125 C-4.79180045 64.21866999 -19.36169663 70.00546534 -35.625 72.515625 C-38.29332509 72.79349623 -40.93250314 72.95778291 -43.61328125 73.05078125 C-44.45761719 73.09074219 -45.30195312 73.13070312 -46.171875 73.171875 C-65.07728397 73.64942619 -85.20337853 69.87715545 -99.55078125 56.73828125 C-106.75975182 48.84357933 -109.84310292 38.96767218 -109.4921875 28.40625 C-108.26680775 15.93769523 -104.08775606 7.14469104 -94.44921875 -0.9453125 C-68.6736843 -19.15860337 -25.24099066 -18.82698705 0 0 Z M-79.98828125 12.36328125 C-85.61280515 19.64391496 -86.50327537 26.98788341 -85.61328125 36.05078125 C-83.65428699 42.96487865 -79.25766833 48.70032965 -73.21484375 52.59765625 C-65.08737848 56.84894578 -57.38655558 58.42675381 -48.30078125 58.36328125 C-47.46699951 58.3583667 -46.63321777 58.35345215 -45.77416992 58.34838867 C-34.35038488 58.13192399 -25.07665898 55.39275058 -16.80078125 47.30078125 C-11.91145487 40.0366392 -10.70037273 32.71715938 -11.61328125 24.05078125 C-13.16634107 16.38179593 -16.67369722 10.93199665 -23.11328125 6.36328125 C-39.46138041 -3.10944911 -66.64750779 -1.99112941 -79.98828125 12.36328125 Z " fill="#F6F6F6" transform="translate(690.61328125,174.94921875)"/>
<path d="M0 0 C6.82912421 6.34041099 11.06297306 14.69570908 11.625 23.9921875 C11.91337164 35.81414302 11.19180097 44.88224196 3.32421875 54.30078125 C-10.74497842 68.73600631 -29.64390641 72.80530315 -49.11328125 73.30078125 C-66.38968655 72.88573247 -84.78287896 69.90627007 -98 57.87890625 C-107.15883839 48.05981888 -109.08989294 38.7917609 -108.890625 25.80859375 C-108.67235871 20.24226051 -107.51842301 15.82933218 -104.61328125 11.05078125 C-104.18917969 10.34953125 -103.76507812 9.64828125 -103.328125 8.92578125 C-95.08036062 -3.20463544 -81.53714548 -8.97128247 -67.61328125 -11.94921875 C-44.7607935 -16.26213911 -19.03548532 -14.19836648 0 0 Z M-79.49609375 12.0078125 C-85.4045394 19.4718634 -86.54547703 26.66829123 -85.61328125 36.05078125 C-83.82738572 43.70975604 -78.96930278 48.67482873 -72.61328125 53.05078125 C-60.74300302 59.14442556 -44.76067719 60.43579938 -31.86328125 56.86328125 C-24.09246084 53.93037901 -17.77302452 49.72048188 -13.64453125 42.3125 C-10.40600945 35.07080542 -10.58006727 26.70082919 -12.80078125 19.17578125 C-15.61311055 11.96267739 -20.66971321 7.22434071 -27.61328125 4.05078125 C-44.24913533 -1.59231715 -66.51864576 -1.48119464 -79.49609375 12.0078125 Z " fill="#F6F6F6" transform="translate(1192.61328125,174.94921875)"/>
<path d="M0 0 C3.14702976 3.14702976 2.75986665 6.67561565 2.86010742 10.98339844 C2.64945637 16.48510818 0.92356335 18.93179465 -3.1875 22.75 C-3.69095947 23.18683105 -4.19441895 23.62366211 -4.71313477 24.07373047 C-10.9691305 29.51522247 -13.78019556 35.92321606 -14.9375 44.0625 C-15.45937851 54.38590918 -12.31958392 63.05611283 -5.40234375 70.78515625 C4.76652995 80.18475345 17.3164943 82.63412302 30.671875 82.30859375 C41.93738571 81.71057875 52.12708306 77.32085129 59.84375 69.015625 C66.09625766 61.10804178 68.68973391 52.67485734 67.78515625 42.609375 C66.19574841 33.95088655 62.31026615 28.04228928 55.6875 22.375 C51.87879392 18.78700646 50.40441166 16.36690778 50.21020508 11.04931641 C50.37376989 2.62623011 50.37376989 2.62623011 53 0 C61.42334251 -0.35844011 67.41694476 5.9288098 73.4609375 11.109375 C82.24245557 19.32144309 88.70148024 29.61027294 89.37109375 41.8203125 C89.74294331 57.80234653 87.03289817 68.94078573 76 81 C75.47921875 81.62390625 74.9584375 82.2478125 74.421875 82.890625 C65.59497632 92.7874508 49.60110151 100.33799536 36.41967773 101.16113281 C14.47619265 101.49791156 -4.59210425 99.00054559 -21.03710938 83.20898438 C-31.41153876 72.71912323 -36.3445313 62.34437465 -36.5625 47.625 C-36.46144972 34.56999291 -32.90599046 24.76126303 -24 15 C-23.39285156 14.31292969 -22.78570312 13.62585938 -22.16015625 12.91796875 C-16.70381334 7.08224822 -8.5814313 -1.16953067 0 0 Z " fill="#F6F6F6" transform="translate(80,147)"/>
<path d="M0 0 C7.14510575 5.74715028 11.05371554 13.72248898 12.15625 22.734375 C12.30036083 26.78277549 12.29634951 30.82828669 12.2890625 34.87890625 C12.29001923 36.04443527 12.29097595 37.20996429 12.29196167 38.41081238 C12.29264057 40.86591649 12.29080656 43.32102241 12.28662109 45.77612305 C12.28124461 49.55065891 12.28658829 53.32507708 12.29296875 57.09960938 C12.29230839 59.48437526 12.29102811 61.86914108 12.2890625 64.25390625 C12.29108673 65.38923294 12.29311096 66.52455963 12.29519653 67.69429016 C12.29046829 69.25677742 12.29046829 69.25677742 12.28564453 70.85083008 C12.28484894 71.77205154 12.28405334 72.69327301 12.28323364 73.64241028 C12.15625 75.734375 12.15625 75.734375 11.15625 76.734375 C9.52152118 76.82137842 7.88310945 76.84138563 6.24609375 76.83203125 C5.25673828 76.82880859 4.26738281 76.82558594 3.24804688 76.82226562 C2.20712891 76.81388672 1.16621094 76.80550781 0.09375 76.796875 C-0.95103516 76.79236328 -1.99582031 76.78785156 -3.07226562 76.78320312 C-5.6628166 76.77137413 -8.25325559 76.75489189 -10.84375 76.734375 C-10.85183685 76.12573608 -10.85992371 75.51709717 -10.86825562 74.89001465 C-10.95460419 68.53031233 -11.05411967 62.17091088 -11.16113281 55.81152344 C-11.19931274 53.44113231 -11.2341844 51.07068541 -11.265625 48.70019531 C-11.3115144 45.28430307 -11.36946962 41.86879111 -11.4296875 38.453125 C-11.44123871 37.40072632 -11.45278992 36.34832764 -11.46469116 35.26403809 C-11.62854053 27.0142679 -12.12858581 19.18225255 -17.84375 12.734375 C-26.92961367 7.31746961 -36.60870252 6.66200134 -46.78125 8.859375 C-53.77019803 10.74135469 -60.06687884 13.82593176 -64.34375 19.859375 C-66.46615242 23.92731296 -66.96842448 27.21596008 -67.04907227 31.77832031 C-67.06901749 32.77905579 -67.08896271 33.77979126 -67.10951233 34.81085205 C-67.13458107 36.42041779 -67.13458107 36.42041779 -67.16015625 38.0625 C-67.18093735 39.16664246 -67.20171844 40.27078491 -67.22312927 41.40838623 C-67.28848646 44.93365283 -67.34744564 48.45899359 -67.40625 51.984375 C-67.44944836 54.37500765 -67.49306307 56.76563282 -67.53710938 59.15625 C-67.64415372 65.01554673 -67.74594585 70.87491714 -67.84375 76.734375 C-71.48956687 76.76325012 -75.13535463 76.78113085 -78.78125 76.796875 C-80.34262695 76.80944336 -80.34262695 76.80944336 -81.93554688 76.82226562 C-82.92490234 76.82548828 -83.91425781 76.82871094 -84.93359375 76.83203125 C-86.30825806 76.83988647 -86.30825806 76.83988647 -87.71069336 76.84790039 C-89.84375 76.734375 -89.84375 76.734375 -90.84375 75.734375 C-90.94408866 73.24483803 -90.97992943 70.78302547 -90.97314453 68.29296875 C-90.97489685 67.51414337 -90.97664917 66.73531799 -90.97845459 65.93289185 C-90.98287349 63.34586389 -90.97993499 60.75890371 -90.9765625 58.171875 C-90.97723553 56.38207994 -90.97820554 54.59228498 -90.97946167 52.80249023 C-90.98093869 49.04637789 -90.97878394 45.29028928 -90.97412109 41.53417969 C-90.9684238 36.70837007 -90.97170278 31.88261605 -90.97769356 27.05680847 C-90.98129905 23.35949277 -90.98016064 19.66219036 -90.97756577 15.96487427 C-90.97689646 14.18498732 -90.97772503 12.40509918 -90.98004532 10.62521362 C-90.98257165 8.14203678 -90.97873154 5.65895126 -90.97314453 3.17578125 C-90.97516876 2.43288849 -90.97719299 1.68999573 -90.97927856 0.92459106 C-90.95801262 -4.15136238 -90.95801262 -4.15136238 -89.84375 -5.265625 C-88.20902118 -5.35262842 -86.57060945 -5.37263563 -84.93359375 -5.36328125 C-83.94423828 -5.36005859 -82.95488281 -5.35683594 -81.93554688 -5.35351562 C-80.89462891 -5.34513672 -79.85371094 -5.33675781 -78.78125 -5.328125 C-77.21407227 -5.32135742 -77.21407227 -5.32135742 -75.61523438 -5.31445312 C-73.0246834 -5.30262413 -70.43424441 -5.28614189 -67.84375 -5.265625 C-67.51375 -2.295625 -67.18375 0.674375 -66.84375 3.734375 C-66.33328125 3.34765625 -65.8228125 2.9609375 -65.296875 2.5625 C-47.6285547 -10.09353086 -18.51633939 -12.14383297 0 0 Z " fill="#F6F6F6" transform="translate(275.84375,169.265625)"/>
<path d="M0 0 C1.33708008 -0.00193359 1.33708008 -0.00193359 2.70117188 -0.00390625 C3.63380859 -0.00003906 4.56644531 0.00382813 5.52734375 0.0078125 C6.46384766 0.00394531 7.40035156 0.00007812 8.36523438 -0.00390625 C9.70038086 -0.00197266 9.70038086 -0.00197266 11.0625 0 C11.88242432 0.00112793 12.70234863 0.00225586 13.54711914 0.00341797 C15.46484375 0.1328125 15.46484375 0.1328125 16.46484375 1.1328125 C16.57198692 2.71673344 16.61106808 4.30532323 16.62255859 5.89282227 C16.63282074 6.9080043 16.64308289 7.92318634 16.65365601 8.96913147 C16.66095734 10.07631027 16.66825867 11.18348907 16.67578125 12.32421875 C16.70386641 14.6543037 16.73253097 16.98438173 16.76171875 19.31445312 C16.80288163 22.99877611 16.83975514 26.68297211 16.86621094 30.36743164 C16.89391952 33.91580229 16.93981286 37.46357888 16.98828125 41.01171875 C16.99153412 42.10472794 16.99478699 43.19773712 16.99813843 44.3238678 C17.10923324 51.27965253 17.60721955 57.468829 22.04296875 63.15625 C22.87054687 63.82527344 22.87054687 63.82527344 23.71484375 64.5078125 C24.25625 64.96929687 24.79765625 65.43078125 25.35546875 65.90625 C33.70923478 70.76381025 45.58150814 70.40581494 54.8046875 68.41015625 C61.51751039 66.13571557 66.53705753 63.32363107 70.27734375 57.1328125 C71.99222269 52.80048677 72.58495564 48.81631981 72.65429688 44.17480469 C72.6710144 43.21741394 72.68773193 42.26002319 72.70495605 41.27362061 C72.71853149 40.25262268 72.73210693 39.23162476 72.74609375 38.1796875 C72.76450317 37.12372375 72.7829126 36.06776001 72.80187988 34.97979736 C72.88050088 30.46710229 72.94857738 25.95426447 73.01708984 21.44140625 C73.06864353 18.14575425 73.12593093 14.85023733 73.18359375 11.5546875 C73.19716919 10.52559265 73.21074463 9.4964978 73.22473145 8.43621826 C73.24144897 7.49143616 73.2581665 6.54665405 73.27539062 5.57324219 C73.29418274 4.32012238 73.29418274 4.32012238 73.31335449 3.04168701 C73.46484375 1.1328125 73.46484375 1.1328125 74.46484375 0.1328125 C75.94137039 0.03400453 77.42251611 0.00202005 78.90234375 0 C79.79695312 -0.00128906 80.6915625 -0.00257813 81.61328125 -0.00390625 C82.55429687 -0.00003906 83.4953125 0.00382813 84.46484375 0.0078125 C85.87636719 0.00201172 85.87636719 0.00201172 87.31640625 -0.00390625 C88.65832031 -0.00197266 88.65832031 -0.00197266 90.02734375 0 C90.85363281 0.00112793 91.67992187 0.00225586 92.53125 0.00341797 C94.46484375 0.1328125 94.46484375 0.1328125 95.46484375 1.1328125 C95.55990427 3.68871138 95.59041136 6.21749222 95.57836914 8.77368164 C95.57851517 9.57362045 95.57866119 10.37355927 95.57881165 11.19773865 C95.5781123 13.85450915 95.57031893 16.51121043 95.5625 19.16796875 C95.5606359 21.00499941 95.55921196 22.84203056 95.55821228 24.67906189 C95.5543865 29.52390912 95.54455571 34.36872658 95.5335083 39.21356201 C95.52329547 44.15343828 95.51871494 49.09331935 95.51367188 54.03320312 C95.50293349 63.73308813 95.48533621 73.43294319 95.46484375 83.1328125 C88.20484375 83.1328125 80.94484375 83.1328125 73.46484375 83.1328125 C72.96984375 78.6778125 72.96984375 78.6778125 72.46484375 74.1328125 C71.69914063 74.71289062 71.69914063 74.71289062 70.91796875 75.3046875 C62.35300716 81.43987275 52.99544961 84.68676474 42.46484375 85.1328125 C41.46130859 85.19275391 41.46130859 85.19275391 40.4375 85.25390625 C27.00924668 85.67900924 12.16070031 83.80881617 1.96484375 74.3828125 C-4.26026051 67.53649201 -6.66969453 59.65696521 -6.64868164 50.51635742 C-6.64860611 49.41559372 -6.64853058 48.31483002 -6.64845276 47.18070984 C-6.64329147 46.0034584 -6.63813019 44.82620697 -6.6328125 43.61328125 C-6.63139755 42.39957352 -6.6299826 41.18586578 -6.62852478 39.93537903 C-6.6229329 36.06366498 -6.61038183 32.19200903 -6.59765625 28.3203125 C-6.5926402 25.69336021 -6.58807748 23.06640701 -6.58398438 20.43945312 C-6.57296612 14.00388647 -6.55623601 7.56835364 -6.53515625 1.1328125 C-4.15076916 -0.05938104 -2.65859623 0.00365228 0 0 Z " fill="#F6F6F6" transform="translate(803.53515625,162.8671875)"/>
<path d="M0 0 C7.89464147 5.79226412 12.52225419 12.50094942 14.125 22.25 C14.213296 24.11527151 14.25285171 25.98322641 14.25439453 27.85058594 C14.25754669 28.94812195 14.26069885 30.04565796 14.26394653 31.17645264 C14.26091019 32.93762421 14.26091019 32.93762421 14.2578125 34.734375 C14.25876923 35.94571106 14.25972595 37.15704712 14.26071167 38.40509033 C14.26139131 40.96032768 14.25955209 43.51556677 14.25537109 46.07080078 C14.25000128 49.99906239 14.25533294 53.92721061 14.26171875 57.85546875 C14.26105829 60.33593775 14.25977781 62.81640669 14.2578125 65.296875 C14.25983673 66.4790863 14.26186096 67.66129761 14.26394653 68.8793335 C14.25921829 70.50672455 14.25921829 70.50672455 14.25439453 72.16699219 C14.25359894 73.12675964 14.25280334 74.0865271 14.25198364 75.07537842 C14.125 77.25 14.125 77.25 13.125 78.25 C11.57544441 78.34899523 10.02146327 78.38079524 8.46875 78.3828125 C7.05916016 78.38474609 7.05916016 78.38474609 5.62109375 78.38671875 C4.13802734 78.38091797 4.13802734 78.38091797 2.625 78.375 C1.63628906 78.37886719 0.64757813 78.38273437 -0.37109375 78.38671875 C-1.31082031 78.38542969 -2.25054688 78.38414062 -3.21875 78.3828125 C-4.08693359 78.38168457 -4.95511719 78.38055664 -5.84960938 78.37939453 C-7.875 78.25 -7.875 78.25 -8.875 77.25 C-8.98214317 75.66607906 -9.02122433 74.07748927 -9.03271484 72.48999023 C-9.04297699 71.4748082 -9.05323914 70.45962616 -9.06381226 69.41368103 C-9.07111359 68.30650223 -9.07841492 67.19932343 -9.0859375 66.05859375 C-9.11402266 63.7285088 -9.14268722 61.39843077 -9.171875 59.06835938 C-9.21303788 55.38403639 -9.24991139 51.69984039 -9.27636719 48.01538086 C-9.30407577 44.46701021 -9.34996911 40.91923362 -9.3984375 37.37109375 C-9.40169037 36.27808456 -9.40494324 35.18507538 -9.40829468 34.0589447 C-9.52972712 26.45590831 -10.11453406 20.27977969 -15.4375 14.4375 C-22.83993283 9.05391249 -32.03117704 8.40661556 -40.875 9.25 C-48.50755554 10.59100537 -56.39061111 13.80307275 -61.2890625 20.0546875 C-64.07893371 24.73123421 -64.98369758 28.84638015 -65.08032227 34.20214844 C-65.10026749 35.18286316 -65.12021271 36.16357788 -65.14076233 37.17401123 C-65.16583107 38.7507663 -65.16583107 38.7507663 -65.19140625 40.359375 C-65.21218735 41.44132141 -65.23296844 42.52326782 -65.25437927 43.63800049 C-65.31972931 47.09193613 -65.37869229 50.54594737 -65.4375 54 C-65.48069904 56.34245571 -65.52431378 58.6849038 -65.56835938 61.02734375 C-65.67617755 66.76815283 -65.77535965 72.50901983 -65.875 78.25 C-73.135 78.25 -80.395 78.25 -87.875 78.25 C-87.89755088 67.57579925 -87.915915 56.9016142 -87.92681217 46.22739506 C-87.93204103 41.27146078 -87.93913874 36.31554358 -87.95043945 31.35961914 C-87.96126822 26.58101164 -87.96727681 21.80242062 -87.96987724 17.0238018 C-87.97173151 15.19646381 -87.97535216 13.36912676 -87.98073006 11.54179573 C-87.98794036 8.99146671 -87.98899095 6.44120663 -87.98852539 3.89086914 C-87.99212067 3.12770386 -87.99571594 2.36453857 -87.99942017 1.57824707 C-87.98905216 -3.63594784 -87.98905216 -3.63594784 -86.875 -4.75 C-85.39847336 -4.84880797 -83.91732764 -4.88079245 -82.4375 -4.8828125 C-81.54289062 -4.88410156 -80.64828125 -4.88539063 -79.7265625 -4.88671875 C-78.78554687 -4.88285156 -77.84453125 -4.87898437 -76.875 -4.875 C-75.46347656 -4.88080078 -75.46347656 -4.88080078 -74.0234375 -4.88671875 C-72.68152344 -4.88478516 -72.68152344 -4.88478516 -71.3125 -4.8828125 C-70.48621094 -4.88168457 -69.65992188 -4.88055664 -68.80859375 -4.87939453 C-66.875 -4.75 -66.875 -4.75 -65.875 -3.75 C-65.64307135 -2.23530552 -65.46284762 -0.71245438 -65.3125 0.8125 C-65.18681641 2.05193359 -65.18681641 2.05193359 -65.05859375 3.31640625 C-64.99800781 3.95449219 -64.93742187 4.59257812 -64.875 5.25 C-64.35292969 4.86328125 -63.83085938 4.4765625 -63.29296875 4.078125 C-46.3484558 -7.91063723 -18.19533264 -11.1925237 0 0 Z " fill="#F6F6F6" transform="translate(1325.875,167.75)"/>
<path d="M0 0 C3.91901306 3.50507983 3.91901306 3.50507983 4.5625 7.4375 C3.85724773 11.90409773 2.49355638 13.2210347 -1 16 C-4.57045761 18.49932033 -7.72135246 18.49099234 -12 18 C-16.3976865 16.16242714 -20.33641753 13.42122388 -24.34765625 10.875 C-50.97626219 -5.81649385 -84.16567963 -11.74528286 -115.02734375 -4.96875 C-116.35283078 -4.65107943 -117.67704945 -4.32807365 -119 -4 C-119.69496582 -3.83371094 -120.38993164 -3.66742188 -121.10595703 -3.49609375 C-136.03911622 0.17015129 -149.09887405 6.59106847 -161.64453125 15.43359375 C-165.76772098 18.17554911 -169.13007286 18.40582726 -174 18 C-177.93427098 16.40096029 -180.60768169 14.58847747 -183 11 C-183.5625 7.75 -183.5625 7.75 -183 4 C-178.95420987 -1.32605523 -173.4248296 -5.04442611 -167.75 -8.4375 C-166.9669751 -8.90631592 -166.1839502 -9.37513184 -165.37719727 -9.8581543 C-116.34042829 -38.4812499 -44.47813301 -37.67892797 0 0 Z " fill="#F6F6F6" transform="translate(1129,61)"/>
<path d="M0 0 C1 1 1 1 1.09765625 4.37890625 C1.09098369 5.77347077 1.07902532 7.16801743 1.0625 8.5625 C1.05798828 9.27341797 1.05347656 9.98433594 1.04882812 10.71679688 C1.03700864 12.47790013 1.01907263 14.23896036 1 16 C-2.85846831 17.2861561 -4.4324107 16.41232663 -8.25 15.125 C-20.63713563 10.96687701 -35.73348825 9.63891663 -48 15 C-50.2547921 16.85571385 -50.90549459 17.53928612 -51.5 20.4375 C-50.78066918 24.12407047 -49.06390945 24.90667126 -46 27 C-42.66713393 28.34605625 -42.66713393 28.34605625 -38.9375 29.375 C-38.25212158 29.58068604 -37.56674316 29.78637207 -36.8605957 29.99829102 C-32.88219155 31.18715267 -28.8868355 32.31417329 -24.890625 33.44140625 C0.01626457 40.54931819 0.01626457 40.54931819 5 49 C7.26348193 53.18744157 7.56363071 57.3246371 7 62 C4.76255243 68.85218318 -0.60564195 73.22578259 -6.83984375 76.484375 C-26.9447184 85.28187485 -52.49891683 85.46910313 -73.3125 78.68359375 C-75 78 -75 78 -76 77 C-76.07313567 74.46950598 -76.09247527 71.96695163 -76.0625 69.4375 C-76.05798828 68.72658203 -76.05347656 68.01566406 -76.04882812 67.28320312 C-76.03700864 65.52209987 -76.01907263 63.76103964 -76 62 C-71.82183505 60.20317259 -68.16651806 61.98086166 -64.125 63.375 C-55.8532558 66.16805648 -48.42361532 67.20053863 -39.6875 67.25 C-38.78837891 67.270625 -37.88925781 67.29125 -36.96289062 67.3125 C-30.88843806 67.34763783 -25.5422395 66.6118513 -20 64 C-17.76272021 62.1206372 -17.76272021 62.1206372 -17.375 59.1875 C-17.66676984 56.07349817 -17.66676984 56.07349817 -19.32763672 54.7355957 C-25.70111828 50.65828144 -32.47936594 48.89870062 -39.75 47 C-66.88416888 39.82257468 -66.88416888 39.82257468 -73 32 C-76.16851142 26.43369615 -76.2599007 21.631001 -75.03125 15.45703125 C-71.60304172 7.28906532 -64.59111594 4.00810065 -56.83789062 0.73242188 C-40.36484786 -5.83228698 -16.72761585 -5.70393968 0 0 Z " fill="#F6F6F6" transform="translate(1447,165)"/>
<path d="M0 0 C0 7.26 0 14.52 0 22 C2.08183594 21.98839844 4.16367187 21.97679687 6.30859375 21.96484375 C8.31746298 21.95789265 10.32633251 21.95097611 12.33520508 21.94506836 C13.73495228 21.9400292 15.1346942 21.93319784 16.53442383 21.92456055 C18.54245777 21.9124768 20.55052957 21.90730193 22.55859375 21.90234375 C24.37315063 21.89448853 24.37315063 21.89448853 26.22436523 21.88647461 C29 22 29 22 30 23 C30 27.62 30 32.24 30 37 C20.1 37 10.2 37 0 37 C0.09715179 43.13845904 0.20001903 49.27627705 0.31738281 55.41430664 C0.35556383 57.50051104 0.39043533 59.58677882 0.421875 61.6730957 C0.46776227 64.679429 0.52571733 67.68532999 0.5859375 70.69140625 C0.59748871 71.61772354 0.60903992 72.54404083 0.62094116 73.49842834 C0.73776385 78.67459727 1.13582172 83.1437339 3 88 C7.24473448 91.0310731 10.81011035 91.36331248 15.9375 91.25 C17.15566406 91.22421875 18.37382813 91.1984375 19.62890625 91.171875 C23.16358734 90.99165951 26.52668375 90.66158405 30 90 C30 94.62 30 99.24 30 104 C17.35908026 108.21363991 2.05904707 108.84137971 -10.375 103.3125 C-16.1855007 100.06830378 -19.85091426 95.22672427 -22 89 C-22.24050903 86.42460632 -22.24050903 86.42460632 -22.22705078 83.65893555 C-22.22689972 82.6182341 -22.22674866 81.57753265 -22.22659302 80.5052948 C-22.21110916 78.83784966 -22.21110916 78.83784966 -22.1953125 77.13671875 C-22.1924826 75.98959915 -22.18965271 74.84247955 -22.18673706 73.66059875 C-22.17555697 70.00279232 -22.15045595 66.34523222 -22.125 62.6875 C-22.11496741 60.20508167 -22.10584205 57.72265949 -22.09765625 55.24023438 C-22.07562471 49.16007244 -22.04216848 43.08005382 -22 37 C-22.60062256 37.00523682 -23.20124512 37.01047363 -23.82006836 37.01586914 C-26.52586838 37.03658014 -29.23165177 37.04964125 -31.9375 37.0625 C-32.88302734 37.07087891 -33.82855469 37.07925781 -34.80273438 37.08789062 C-36.15141602 37.09272461 -36.15141602 37.09272461 -37.52734375 37.09765625 C-38.77632446 37.10551147 -38.77632446 37.10551147 -40.05053711 37.11352539 C-42 37 -42 37 -43 36 C-43.0989294 33.83519203 -43.129711 31.66706215 -43.125 29.5 C-43.12757813 28.3140625 -43.13015625 27.128125 -43.1328125 25.90625 C-43 23 -43 23 -42 22 C-40.5112814 21.91330568 -39.018555 21.89296506 -37.52734375 21.90234375 C-36.62822266 21.90556641 -35.72910156 21.90878906 -34.80273438 21.91210938 C-33.85720703 21.92048828 -32.91167969 21.92886719 -31.9375 21.9375 C-30.98810547 21.94201172 -30.03871094 21.94652344 -29.06054688 21.95117188 C-26.70700469 21.96299872 -24.35349468 21.98093479 -22 22 C-22 16.06 -22 10.12 -22 4 C-5.53125 -1.84375 -5.53125 -1.84375 0 0 Z " fill="#F6F6F6" transform="translate(969,141)"/>
<path d="M0 0 C0.66338379 0.20753906 1.32676758 0.41507812 2.01025391 0.62890625 C14.41186629 4.59362368 30.35650193 11.03156073 37 23 C37.3125 26.1875 37.3125 26.1875 36 29 C32.42969469 32.89679341 28.9995472 34.84909078 23.6875 35.25 C18.81717706 34.91980861 15.89625895 33.16589773 11.7890625 30.640625 C-2.51142809 21.8889052 -15.62232748 17.45219107 -32.5 17.625 C-33.63308594 17.61339844 -34.76617188 17.60179688 -35.93359375 17.58984375 C-47.07167032 17.62811893 -56.83883821 19.96867825 -66.8125 24.875 C-67.85954102 25.36419922 -67.85954102 25.36419922 -68.92773438 25.86328125 C-72.45469702 27.55595987 -75.66125828 29.38758734 -78.82421875 31.6953125 C-83.33922263 34.97188358 -86.47975129 35.54297528 -92 35 C-96.60909083 32.92008536 -100.10484436 30.83360403 -102 26 C-102.07709874 23.14734679 -101.44878276 21.56730403 -99.68359375 19.3359375 C-88.80197924 7.87363359 -73.98079133 2.05893168 -59 -2 C-58.22140625 -2.21527344 -57.4428125 -2.43054688 -56.640625 -2.65234375 C-38.38058484 -7.21735379 -17.81106367 -5.73706584 0 0 Z " fill="#F6F6F6" transform="translate(1072,67)"/>
<path d="M0 0 C7.26 0 14.52 0 22 0 C22 39.6 22 79.2 22 120 C14.74 120 7.48 120 0 120 C-1.2134411 117.5731178 -1.12579416 116.03658013 -1.12698364 113.32444763 C-1.12980347 112.33868744 -1.13262329 111.35292725 -1.13552856 110.33729553 C-1.13350433 109.25202072 -1.1314801 108.16674591 -1.12939453 107.04858398 C-1.13114685 105.90873047 -1.13289917 104.76887695 -1.13470459 103.59448242 C-1.13912033 99.81167089 -1.13618626 96.02890579 -1.1328125 92.24609375 C-1.13348557 89.62817882 -1.13445562 87.01026396 -1.13571167 84.39234924 C-1.13753213 78.90031426 -1.13513001 73.40829271 -1.13037109 67.91625977 C-1.124926 61.55875429 -1.12669341 55.20128087 -1.1321975 48.84377617 C-1.13727401 42.73661143 -1.13674732 36.62946096 -1.13381577 30.522295 C-1.13314629 27.91903746 -1.13397563 25.3157791 -1.13629532 22.71252251 C-1.13882007 19.08233308 -1.13498388 15.45220622 -1.12939453 11.82202148 C-1.13141876 10.73472244 -1.13344299 9.6474234 -1.13552856 8.5271759 C-1.13270874 7.54423553 -1.12988892 6.56129517 -1.12698364 5.54856873 C-1.1264181 4.25965052 -1.1264181 4.25965052 -1.12584114 2.94469357 C-1 1 -1 1 0 0 Z " fill="#F6F6F6" transform="translate(736,126)"/>
<path d="M0 0 C1.39895508 -0.01836914 1.39895508 -0.01836914 2.82617188 -0.03710938 C4.16325195 -0.04000977 4.16325195 -0.04000977 5.52734375 -0.04296875 C6.348396 -0.04707764 7.16944824 -0.05118652 8.01538086 -0.05541992 C10.0625 0.1875 10.0625 0.1875 12.0625 2.1875 C12.2555448 4.70653033 12.3248593 7.11511937 12.30541992 9.63476562 C12.30731827 10.40237717 12.30921661 11.16998871 12.31117249 11.96086121 C12.31488557 14.50526045 12.30416853 17.049376 12.29296875 19.59375 C12.29177712 21.35729946 12.29132375 23.12084957 12.2915802 24.88439941 C12.29001441 28.58329228 12.28171753 32.28208848 12.26831055 35.98095703 C12.25132058 40.72929743 12.24749616 45.47753151 12.24825573 50.22589874 C12.24798418 53.86835755 12.24250531 57.51079298 12.23525429 61.15324402 C12.23206549 62.90439171 12.23009972 64.65554206 12.22936058 66.4066925 C12.22719925 68.85125264 12.21845951 71.29569865 12.20776367 73.74023438 C12.20844345 74.83279793 12.20844345 74.83279793 12.20913696 75.94743347 C12.1769777 80.95854459 12.1769777 80.95854459 11.0625 83.1875 C3.8025 83.1875 -3.4575 83.1875 -10.9375 83.1875 C-10.96005088 72.51329925 -10.978415 61.8391142 -10.98931217 51.16489506 C-10.99454103 46.20896078 -11.00163874 41.25304358 -11.01293945 36.29711914 C-11.02376822 31.51851164 -11.02977681 26.73992062 -11.03237724 21.9613018 C-11.03423151 20.13396381 -11.03785216 18.30662676 -11.04323006 16.47929573 C-11.05044036 13.92896671 -11.05149095 11.37870663 -11.05102539 8.82836914 C-11.05462067 8.06520386 -11.05821594 7.30203857 -11.06192017 6.51574707 C-11.04536094 -1.8120903 -7.25569419 0.0049936 0 0 Z " fill="#F6F6F6" transform="translate(1038.9375,162.8125)"/>
<path d="M0 0 C0.77472656 0.54398438 1.54945312 1.08796875 2.34765625 1.6484375 C7.79299033 5.58598066 7.79299033 5.58598066 9 8 C9.50209205 13.18828452 9.50209205 13.18828452 9 16 C6.75 18.375 6.75 18.375 4 20 C3.401875 20.4125 2.80375 20.825 2.1875 21.25 C-1.43737979 22.49281593 -4.29716391 22.89055552 -8 22 C-10.79894317 20.44503157 -13.46720949 18.76314779 -16.14135742 17.00439453 C-20.72978648 14.0315345 -24.57424727 12.4538269 -30 12 C-30.71414063 11.93167969 -31.42828125 11.86335938 -32.1640625 11.79296875 C-40.94726711 11.37398196 -48.47259217 13.75781194 -55.6875 18.6875 C-60.62425765 21.99035917 -63.11384039 23.15793304 -69 22 C-76.23218391 18.53563218 -76.23218391 18.53563218 -78 15 C-78.45880578 10.94721558 -78.61461099 8.81948133 -76.125 5.5 C-75.10914844 4.63538477 -74.06257487 3.8065039 -73 3 C-72.28328125 2.43152344 -71.5665625 1.86304687 -70.828125 1.27734375 C-64.89993999 -3.16879501 -59.08651128 -5.90458285 -52 -8 C-51.30777344 -8.22558594 -50.61554687 -8.45117188 -49.90234375 -8.68359375 C-33.43635218 -13.28391895 -13.75119703 -9.95184669 0 0 Z " fill="#F6F6F6" transform="translate(1074,103)"/>
<path d="M0 0 C0.74765625 -0.04898438 1.4953125 -0.09796875 2.265625 -0.1484375 C5.96953474 0.631946 8.48438026 2.411724 10.75 5.375 C11.6473792 8.67249092 11.61542541 11.87496591 11.58203125 15.27734375 C11.59014328 16.23266495 11.59825531 17.18798615 11.60661316 18.17225647 C11.6150618 20.18864222 11.60823668 22.20514227 11.5871582 24.22143555 C11.56259766 27.30025781 11.60724536 30.3727815 11.65820312 33.45117188 C11.6578326 35.41406776 11.65340967 37.37696791 11.64453125 39.33984375 C11.67049126 40.71353371 11.67049126 40.71353371 11.69697571 42.11497498 C11.61714042 45.77807242 11.54614672 48.3479241 9.25473022 51.3039856 C6.22815966 54.01744363 4.28410657 55.26054859 0.25 56.125 C-4.4467401 55.11855569 -7.29373485 53.17352628 -10.25 49.375 C-11.21999661 46.08617685 -11.16415761 42.96806965 -11.07421875 39.55859375 C-11.07380081 38.62451187 -11.07338287 37.69042999 -11.07295227 36.7280426 C-11.06459676 34.7603665 -11.03920683 32.79269763 -10.99780273 30.82543945 C-10.93760895 27.81794368 -10.9362308 24.81465308 -10.94335938 21.80664062 C-10.92795219 19.89059393 -10.9091857 17.97457067 -10.88671875 16.05859375 C-10.88540451 15.16264999 -10.88409027 14.26670624 -10.88273621 13.34361267 C-10.77234417 9.17811505 -10.59861696 6.92897337 -8.33520508 3.33227539 C-5.50783642 0.67836899 -3.79377425 0.16775192 0 0 Z " fill="#F6F6F6" transform="translate(106.25,125.625)"/>
<path d="M0 0 C3.90491015 2.06139034 6.75615408 4.49065135 9.0078125 8.2734375 C9.6328125 11.1484375 9.6328125 11.1484375 9.0078125 14.2734375 C6.40313236 18.28968624 3.53935362 21.53053707 -0.9921875 23.2734375 C-6.2322897 23.95417585 -10.6531767 23.93077008 -15.4296875 21.5859375 C-21.67035563 15.95411504 -21.67035563 15.95411504 -22.5546875 11.3359375 C-21.81453281 7.30620639 -19.96827951 4.9424724 -16.9921875 2.2734375 C-11.80850298 -1.26089285 -5.94973712 -2.16990412 0 0 Z " fill="#F6F6F6" transform="translate(1045.9921875,125.7265625)"/>
</svg>
